<svg xmlns="http://www.w3.org/2000/svg" width="350.05127mm" height="61.833126mm" viewBox="0 0 350.05127 61.833126"><path d="M509.046 585.257H398.368v25.48h110.678z" style="fill:#002561;fill-opacity:1;fill-rule:nonzero;stroke:none" transform="matrix(1.9583 0 0 -1.9583 -646.81 1202.005)"/><path d="m0 0-.018-.146C-.424 1.113-1.043 2.32-1.97 3.389c-2.965 3.422-7.675 3.817-10.96 3.817-5.193 0-9.06-1.265-11.796-3.926a6.565 6.565 0 0 1-.569.778c-2.291 2.643-6 2.643-7.219 2.643l-44.159.002 4.598-7.238-3.342-23.331 39.736.001c3.648 0 6.478 1.231 8.351 3.539.049-.06.088-.127.139-.186 2.995-3.457 7.629-3.857 10.854-3.857 7.441 0 12.278 2.796 14.855 8.689C.44-12.32.175-3.346 0 0" style="fill:#002561;fill-opacity:1;fill-rule:nonzero;stroke:none" transform="matrix(1.9583 0 0 -1.9583 150.148 14.111)"/><path d="M0 0h-6.256c-4.431-5.871-8.156-9.72-9.537-10.737 1.133-.513 3.794-4.469 6.821-12.004h6.333c-2.998 7.535-5.684 11.553-6.557 12.297C-8.053-9.492-4.624-5.871 0 0" style="fill:#fff;fill-opacity:1;fill-rule:nonzero;stroke:none" transform="matrix(1.9583 0 0 -1.9583 55.95 8.65)"/><path d="M0 0c.625-1.041 1.909-1.248 1.695-2.92l-2.839-19.821h5.246L7.37 0Z" style="fill:#fff;fill-opacity:1;fill-rule:nonzero;stroke:none" transform="matrix(1.9583 0 0 -1.9583 13.542 8.65)"/><path d="M0 0c.51 3.551-.359 5.445-4.898 5.445H-19.91c.638-1.045 1.926-1.247 1.706-2.919l-2.849-19.818h12.988c3.69 0 6.23 1.562 6.887 6.135.506 3.552-.318 5.829-2.43 5.829C-1.652-5.328-.457-3.171 0 0m-6.772-10.315c-.243-1.762-.909-2.507-2.025-2.507h-6.361l.751 5.217h6.233c1.172 0 1.673-.846 1.402-2.71m.956 9.133c-.225-1.563-.765-2.15-1.781-2.15h-6.199l.62 4.311h6.205c1 0 1.373-.596 1.155-2.161" style="fill:#fff;fill-opacity:1;fill-rule:nonzero;stroke:none" transform="matrix(1.9583 0 0 -1.9583 96.068 19.318)"/><path d="M0 0c-1.342-9.361-5.508-12.069-12.79-12.069-7.311 0-10.675 2.708-9.327 12.069 1.325 9.239 5.432 11.678 12.734 11.678C-2.098 11.678 1.327 9.239 0 0m-5.614-.062c.893 6.197.141 6.921-4.455 6.921-4.604 0-5.55-.724-6.445-6.921-.903-6.3-.186-7.212 4.405-7.212 4.613 0 5.587.912 6.495 7.212" style="fill:#fff;fill-opacity:1;fill-rule:nonzero;stroke:none" transform="matrix(1.9583 0 0 -1.9583 143.202 30.534)"/><path d="M0 0v17.67h4.796V3.865h7.144V0Z" style="fill:#fff;fill-opacity:1;fill-rule:nonzero;stroke:none" transform="matrix(1.9583 0 0 -1.9583 155.692 48.252)"/><path d="M0 0v17.67h12.734v-3.865H4.796v-3.037h7.282V6.902H4.796V3.865h7.903V0Z" style="fill:#fff;fill-opacity:1;fill-rule:nonzero;stroke:none" transform="matrix(1.9583 0 0 -1.9583 182.857 48.252)"/><path d="M0 0h4.796v-11.32c0-1.346-.32-2.509-.961-3.49-.642-.981-1.534-1.737-2.68-2.269-1.144-.532-2.472-.798-3.986-.798-1.523 0-2.858.266-4.002.798-1.145.532-2.035 1.288-2.67 2.269-.636.981-.953 2.144-.953 3.49V0h4.796v-10.906c0-.546.121-1.034.363-1.463a2.6 2.6 0 0 1 1.004-1.005 2.932 2.932 0 0 1 1.462-.362c.552 0 1.042.121 1.468.362a2.61 2.61 0 0 1 1 1.005c.242.429.363.917.363 1.463z" style="fill:#fff;fill-opacity:1;fill-rule:nonzero;stroke:none" transform="matrix(1.9583 0 0 -1.9583 303.683 13.649)"/><path d="M0 0v17.67h12.734v-3.865H4.796v-3.037h7.282V6.902H4.796V3.865h7.903V0Z" style="fill:#fff;fill-opacity:1;fill-rule:nonzero;stroke:none" transform="matrix(1.9583 0 0 -1.9583 317.537 48.252)"/><path d="m0 0-5.832-17.67h5.176L3.209-4.866h.138l1.761-5.833H2.027l1.083-3.589h3.081l1.021-3.382h5.177L6.557 0Z" style="fill:#fff;fill-opacity:1;fill-rule:nonzero;stroke:none" transform="matrix(1.9583 0 0 -1.9583 221.644 13.649)"/><path d="M0 0c1.292-.727 2.794-1.09 4.504-1.09 1.533 0 2.893.302 4.08.905a6.762 6.762 0 0 1 2.797 2.609c.678 1.136 1.017 2.504 1.017 4.106v2.437h-9.28L5.17 5.569h2.624c-.013-.49-.129-.92-.355-1.287-.241-.389-.602-.69-1.086-.901-.483-.212-1.088-.318-1.814-.318-.824 0-1.513.195-2.068.584-.555.389-.972.949-1.253 1.681-.28.733-.42 1.614-.42 2.643 0 1.018.147 1.888.442 2.609.294.721.723 1.273 1.287 1.656.563.383 1.245.575 2.046.575.372 0 .713-.042 1.025-.125.312-.083.587-.206.824-.369a2.298 2.298 0 0 0 .948-1.394h4.822a6.098 6.098 0 0 1-.772 2.428 6.593 6.593 0 0 1-1.669 1.918 7.717 7.717 0 0 1-2.377 1.253 9.253 9.253 0 0 1-2.904.442 9.196 9.196 0 0 1-3.329-.597 7.894 7.894 0 0 1-2.737-1.759c-.789-.775-1.406-1.723-1.849-2.844-.443-1.121-.665-2.408-.665-3.861 0-1.854.362-3.453 1.086-4.797C-2.301 1.762-1.293.726 0 0" style="fill:#fff;fill-opacity:1;fill-rule:nonzero;stroke:none" transform="matrix(1.9583 0 0 -1.9583 254.356 46.396)"/></svg>