<svg xmlns="http://www.w3.org/2000/svg" xml:space="preserve" width="405.27423" height="179.99216" viewBox="0 0 405.27422 179.99216"><path d="M586.209 241.691c-.308 3.42-1.046 5.873-3.932 8.312-2.93 2.478-5.627 3.507-9.624 3.675-3.148.132-6.16-.449-9.763-1.874-3.34-1.323-4.971-2.424-7.659-4.454l-.796-.638s-.308-.224-.588-.433c-.315.356-.62.718-.75 1.317-.16.745-.365 2.091-.365 3.366 0 .688.058 1.353.22 1.89.293.993 1.384 2.37 2.344 3.585l1.245 1.624.567.788 3.153 4.216c.724.87 1.111 1.918 1.111 2.96 0 .239-.021.477-.062.712-.181 1.038-.762 1.909-1.59 2.39 0 0-2.393.875-2.944 1.073.5.22 1.109.42 1.915.485 1.467.118 2.263.695 2.793 1.08.332.24.38.268.534.282 1.682.16 3.004 1.159 4.065 1.962l.748.548c.738.505 1.18 1.367 1.282 2.488.014.154.025.316.025.485 0 1.052-.291 2.373-1.132 3.211-1.36 1.363-7.474 1.83-10.041 1.969l-4.028.403-5.838.544c-3.84.166-6.904-.55-9.358-2.188-2.396-1.595-9.566-7.406-12.355-10.121-2.722-2.648-8.298-8.58-10.92-11.73-2.558-3.068-3.696-4.512-4.67-6.464-.97-1.941-1.508-4.74-1.508-5.934.003-.841.003-1.221-.71-2.116-1.061-1.32-4.873-5.005-6.712-6.697-1.73-1.59-5.02-3.918-6.697-4.857-1.809-1.01-3.262-1.417-4.708-1.314-1.877.136-3.152.613-4.407 1.649-1.36 1.123-2.858 3.43-3.23 4.052 1.692.677 4.953 2.674 7.637 4.539l3.531 2.378c3.118 2.075 6.653 4.423 8.916 6.32 3.945 3.304 7.095 7.567 7.44 8.042.995 1.368 1.699 3.874 1.699 6.038 0 1.048-.164 2.017-.544 2.736-1.025 1.961-3.65 4.212-7.935 4.649-4.013.41-9.011-.816-12.437-3.047-3.265-2.124-7.45-4.99-10.845-8.31-3.553-3.474-5.71-5.875-7.696-8.568-2.816-3.822-4.263-7.006-4.559-10.02l-.164-2.087c-.06-.902-.129-1.924-.27-2.184-.03 0-4.15-3.262-4.15-3.262l-2.187-1.672c-2.275-1.766-5.171-3.575-6.855-4.445-1.077-.56-2.011-.448-2.528-.16-.513.288-.668.373-.864 1.607-.184 1.143-.08 2.253 1.013 4.585.823 1.757 2.548 4.417 4.617 7.114l1.245 1.636c1.665 2.194 4.45 5.861 5.24 6.652 1.014 1.011 4.101 4.1 2.09 6.574l-6.505 8.403c-1.323 1.587-3.866 1.901-5.668.701-1.2-.802-11.487-8.176-13.292-9.549-2.325-1.765-3.733-2.668-4.466-3.07-.213.264-.456.548-.456.548l-1.834 1.88c-2.267 1.441-5.17-1.727-6.314-3.157l-1.04-1.278c-1.48-1.806-2.479-3.042-2.846-3.709l-.896-2.444c-.114-.482-.155-.62-.248-.72l-.428-.446c-.87-.893-2.062-2.112-2.404-3.822a7.622 7.622 0 0 1-.14-1.494c0-1.414.335-2.814.721-3.805.584-1.494 1.739-2.595 3.084-3.082-.83-.915-2.013-2.087-2.756-2.58-.833-.555-2.047-.827-2.573-.81-.24.317-.579 1.253-.579 2.25 0 .115.004.232.014.347.184 2.138.277 3.707.277 4.863 0 .93-.06 1.589-.178 2.058-.297 1.202-1.935 4.909-4.29 5.565-.513.144-1.132.23-1.748.303 2.274 1.396 4.782 3.382 5.474 3.972.62.526 3.339 2.98 3.339 5.476 0 .39-.068.777-.216 1.16-.9 2.314-3.766 2.187-4.99 2.132-1.425-.057-6.711-.954-7.89-1.446-.628-.24-4.154-.738-5.232-.738l-.715.024c-1.629.075-4.358.198-6.386-.89-2.453-1.314-5.843-3.558-10.325-9.288-4.385-5.607-6.835-9.328-8.884-15.318-2.181-6.374-1.99-11.03-1.446-13.812.208-1.079.748-2.678 1.487-4.258-2.518.851-4.97 1.62-7.304 2.332-7.606 2.307-22.342 6.482-29.516 7.85l-.313.109c.04.016.207.653 1.243 1.553 2.628 2.285 22.969 18.698 30.088 23.985 7.09 5.261 15.913 11.552 17.074 12.29.677.356 3.7.489 4.839.54l1.258.067c1.91.16 3.233 1.21 4.75 2.855l9.679 10.669c1.3 1.538 1.62 3.073.87 4.214-.77 1.175-2.27 1.437-4.46.78-5.225-1.568-32.176-17.019-41.818-23.41-1.805-1.197-4.404-2.85-7.434-4.752 5.266 8.967 9.853 17.526 10.465 22.211l.289 2.206-2.212-.238c-12.754-1.374-38.516-12.606-55.99-24.095.74 1.654 1.5 3.054 2.321 4.537l3.404 6.191-4.81-2.204c-8.66-3.95-19.657-13.86-21.36-16.26-2.29-3.232-.478-20.288-.447-20.444.402-2.058 1.836-3.738 3.651-4.285 1.415-.424 3.62-.246 5.356 1.107l1.297 1.139c3.318 2.96 12.128 10.83 20.138 15.715 6.518 3.97 17.893 9.44 24.501 12.535l-6.154-10.216c-8.978-5.53-16.531-10.191-18.367-11.524-4.69-3.399-7.069-6.82-7.069-10.168 0-3.703 1.705-6.48 4.93-8.033.399-.193 1.135-.453 2.137-.767-.594-.988-.935-1.552-.935-1.552-5.646-9.17-10.138-16.554-12.328-21.18-3.174-6.7-4.74-11.926-4.74-15.859 0-.917.085-1.763.255-2.541l.69-3.162 2.268 2.307c6.654 6.766 19.05 17.218 22.758 19.686.723.482 2.073 1.38 1.618 2.838-.439 1.405-1.887 1.378-2.753 1.364-.181-.004-.416.008-.679.017.819 3.118 2.812 8.024 6.034 14.756 3.125-.807 6.612-1.693 10.352-2.638l5.843-1.482c13.894-3.561 29.735-5.828 41.984-7.406 9.52-1.226 13.999-.875 14.479-.83.975.091 1.736.757 1.945 1.697.592 2.654-3.444 6.094-7.419 8.43a.86.86 0 0 1-.036.02c.09.027.19.051.278.079 2.955.891 8.41 4.98 10.721 7.292 2.484 2.482 4.677 5.135 5.38 6.147.175.256 1.14.632 1.77.632l.286-.003c1.141-.018 3.264-.048 5.125 1.049 1.246.735 4.179 3.869 10.12 10.814l.393.456.734.84c1.36 1.531 2.342 2.64 2.724 5.184l.078.867c.033.586.033.586.396.886.621.512 1.708.676 2.582.811l.807.135c1.957.394 2.845 2.175 3.138 2.76.044.027.402.283 1.384.78-.329-.928-.936-2.379-2.137-4.849-1.332-2.739-3.266-7.131-4.02-9.31-.61-1.774-1.185-3.65-1.185-5.668 0-.608.054-1.23.173-1.864.383-2.043 1.19-4.891 2.864-6.863 1.742-2.047 4.54-2.758 7.678-1.95 3.044.783 7.756 3.41 10.503 5.859 1.91 1.702 5.446 5.41 8.287 8.391l2.875 2.986 1.77 1.851c.348.371.753.804 1.124 1.18.088-.265.164-.48.284-.885.133-.441 1.06-3.48 2.226-5.325 0-.002.175-.279.175-.279.927-1.48 2.479-3.959 5.18-5.27 2.28-1.105 5.049-2.162 8.28-1.608 2.735.468 5.774.99 8.742 2.683 3.419 1.956 7.295 5.545 11.521 10.667l6.7 8.513.189.208c1.463-2.078 4.834-5.193 6.745-6.318 2.495-1.473 5.141-2.772 7.549-2.332 2.2.406 4.765 3 6.102 4.512l10.602 11.318s.619.649.734.772c-.153-.704-.317-1.422-.406-2.044a20.599 20.599 0 0 1-.23-2.959c0-1.592.233-2.89.59-4.262.635-2.462 2.173-4.673 3.824-5.5 1.68-.841 4.52-.882 6.199-.092 1.268.596 3.186 1.497 5.258 3.652l4.502 4.28 1.935 1.792c1.364 1.301 3.98 2.693 5.826 3.105 2.63.586 3.757.548 4.834-.835.407-.522.574-1.322.574-2.158 0-1.196-.337-2.466-.8-3.105-2.375-3.3-5.346-5.902-8.833-7.735l-1.248-.659c-4.996-2.633-9.306-4.909-16.585-7.011l-23.121-6.328-6.605-1.761c-16.712-4.472-33.423-9.222-44.698-12.708-16.038-4.957-33.376-9.198-53.009-12.967-16.107-3.093-25.062-4.571-38.824-5.717l-6.49-.512c-8.733-.666-17.76-1.359-27.113-3.057-9.215-1.673-20.776-5.812-22.875-7.425-.762-.585-.945-1.224-.945-1.703 0-.251.05-.458.094-.593.466-1.419 1.797-1.443 4.002-1.482 2.018-.037 5.07-.092 8.09-.889 4.605-1.219 9.314-3.77 14.819-8.034 2.448-1.897 5.018-4.763 6.721-6.658l1.781-1.896c0-.002.318-.304.318-.304 1.403-1.37 2.727-1.896 5.696-.755l4.754 1.941c3.784 1.583 8.494 3.556 14.547 5.608l12.376 4.358 22.026 7.651 36.273 12.433 4.201 1.483c11.82 4.175 22.024 7.78 30.758 10.51.004 0 18.653 5.648 18.653 5.648l11.682 3.512 9.535 2.875 21.64 6.688c5.44 1.812 13.55 4.79 21.13 9.7 3.982 2.58 5.948 4.611 8.378 7.678 2.158 2.717 4.185 7.114 3.857 10.806m-97.996 13.88c1.888 2.32 4.715 5.077 5.938 5.788 1.552.9 3.094.783 3.757.212.096-.082.284-.242.284-.601 0-.158-.034-.352-.13-.595-.332-.845-1.866-2.752-5.193-5.576l-7.043-5.388-.618-.458c-.328-.243-.9-.663-1.487-1.072.97 2.375 2.95 5.786 4.492 7.69m-90.774-36.683c-.09-2.331-1.663-4.301-3.35-6.082-2.035-2.15-3.863-3.033-6.109-2.955-1.231.043-3.261.952-4.347 1.947-.85.78-1.445 1.941-1.77 3.452-.04.192-.059.418-.059.667 0 1.128.393 2.729.944 3.646 1.348 2.247 3.432 4.744 5.447 7.16l.963 1.157c2.157 2.601 4.196 4.403 5.9 5.777a78.052 78.052 0 0 0-.578-3.617l-.189-1.073a11.972 11.972 0 0 1-.18-2.032c0-2.604.925-4.375 1.565-5.288l.964-1.07c.567-.547.803-.772.803-1.525 0-.051-.002-.106-.004-.164m147.81 43.854-5.754-7.048-4.824-5.367-3.114-3.442-1.478-1.813c-1.39-1.77-2.711-3.444-4.766-4.59-.82-.459-1.982-.274-2.728.023-.506.203-1.114.913-1.445 1.69-.278.645-.569 1.438-.569 2.2 0 .212.025.421.072.623.288 1.135.968 2.123 2.294 3.78.955 1.191 6.756 6.11 9.552 7.85 3.238 2.014 10.61 6.402 11.772 7.01.925.48 1.702.83 2.376 1.088a41.92 41.92 0 0 0-1.388-2.004z" style="fill:#4f4c4d" transform="matrix(1.33333 0 0 -1.33333 -376.384 380.227)"/><path d="M584.722 243.182c-.308 3.417-1.046 5.872-3.932 8.311-2.93 2.477-5.627 3.508-9.624 3.675-3.148.13-6.16-.447-9.764-1.875-3.34-1.321-4.97-2.422-7.658-4.453l-.797-.639-.588-.431c-.314.354-.618.718-.748 1.316a17.401 17.401 0 0 0-.366 3.364c0 .69.059 1.354.219 1.89.294.994 1.385 2.37 2.346 3.587l1.244 1.623.567.788 3.152 4.219c.725.868 1.112 1.918 1.112 2.957 0 .239-.02.478-.062.714-.181 1.036-.762 1.908-1.59 2.39l-2.943 1.073a5.766 5.766 0 0 0 1.914.482c1.467.118 2.264.698 2.793 1.08.332.243.38.27.533.284 1.683.16 3.006 1.16 4.066 1.961l.748.549c.739.506 1.18 1.365 1.282 2.49.014.15.024.314.024.484 0 1.05-.29 2.37-1.131 3.21-1.36 1.36-7.474 1.83-10.041 1.97l-4.028.403-5.839.543c-3.84.165-6.903-.55-9.357-2.187-2.397-1.597-9.566-7.405-12.356-10.123-2.721-2.647-8.297-8.58-10.92-11.73-2.557-3.067-3.695-4.511-4.67-6.463-.97-1.943-1.507-4.74-1.507-5.934.004-.84.004-1.22-.711-2.116-1.06-1.322-4.872-5.005-6.711-6.698-1.73-1.59-5.019-3.917-6.697-4.858-1.809-1.01-3.262-1.415-4.708-1.312-1.877.136-3.153.612-4.408 1.647-1.36 1.123-2.857 3.433-3.23 4.054 1.692.677 4.954 2.673 7.638 4.538l3.53 2.38c3.12 2.073 6.654 4.424 8.918 6.321 3.944 3.302 7.094 7.565 7.438 8.041.995 1.367 1.7 3.871 1.7 6.037 0 1.046-.164 2.016-.543 2.735-1.027 1.961-3.652 4.212-7.936 4.65-4.014.408-9.012-.817-12.437-3.048-3.265-2.125-7.45-4.99-10.845-8.311-3.553-3.472-5.71-5.874-7.696-8.566-2.816-3.822-4.263-7.007-4.559-10.022l-.164-2.083c-.06-.904-.128-1.925-.27-2.185-.03 0-4.151-3.262-4.151-3.262l-2.187-1.672c-2.274-1.77-5.17-3.576-6.854-4.448-1.077-.556-2.012-.447-2.528-.159-.513.288-.668.375-.865 1.61-.183 1.14-.079 2.25 1.014 4.583.822 1.758 2.549 4.417 4.617 7.115l1.244 1.634c1.665 2.194 4.452 5.862 5.242 6.652 1.013 1.013 4.1 4.1 2.09 6.574l-6.506 8.403c-1.323 1.586-3.867 1.903-5.668.702-1.2-.802-11.488-8.177-13.292-9.547-2.326-1.768-3.734-2.671-4.465-3.07-.214.262-.457.546-.457.546l-1.834 1.88c-2.267 1.44-5.171-1.727-6.315-3.158l-1.039-1.276c-1.48-1.808-2.478-3.042-2.846-3.71-.002-.002-.896-2.444-.896-2.444-.114-.483-.155-.618-.248-.72l-.429-.447c-.87-.89-2.061-2.111-2.403-3.82a7.657 7.657 0 0 1-.14-1.496c0-1.414.334-2.814.721-3.804.585-1.495 1.738-2.595 3.084-3.084-.831-.914-2.014-2.085-2.756-2.579-.832-.556-2.048-.825-2.572-.81-.241.316-.58 1.252-.58 2.251 0 .115.004.23.014.345.184 2.14.277 3.71.277 4.863 0 .93-.06 1.59-.178 2.06-.298 1.2-1.935 4.91-4.29 5.566-.514.142-1.133.229-1.748.301 2.273 1.399 4.781 3.381 5.474 3.97.62.527 3.339 2.982 3.339 5.48 0 .388-.068.776-.216 1.159-.9 2.312-3.766 2.188-4.99 2.133-1.425-.06-6.711-.954-7.89-1.446-.628-.24-4.154-.74-5.233-.74l-.714.025c-1.63.073-4.358.197-6.387-.888-2.453-1.317-5.842-3.56-10.324-9.29-4.385-5.606-6.835-9.33-8.884-15.319-2.181-6.373-1.99-11.03-1.446-13.812.208-1.077.749-2.677 1.487-4.258-2.518.851-4.97 1.622-7.304 2.332-7.605 2.308-22.342 6.483-29.516 7.85l-.313.11c.04.017.207.651 1.242 1.553 2.63 2.287 22.97 18.697 30.09 23.984 7.088 5.262 15.912 11.552 17.072 12.29.678.357 3.702.491 4.84.541l1.258.066c1.91.16 3.232 1.21 4.75 2.855l9.679 10.67c1.3 1.537 1.619 3.073.87 4.214-.769 1.174-2.27 1.437-4.46.78-5.226-1.568-32.176-17.018-41.818-23.411-1.806-1.196-4.404-2.85-7.435-4.752 5.267 8.968 9.853 17.528 10.465 22.212l.29 2.205-2.213-.237c-12.753-1.373-38.516-12.608-55.99-24.095.74 1.655 1.502 3.054 2.322 4.535l3.404 6.191-4.81-2.203c-8.66-3.948-19.657-13.86-21.36-16.26-2.29-3.23-.478-20.287-.447-20.444.401-2.058 1.836-3.738 3.651-4.284 1.415-.424 3.62-.246 5.355 1.108l1.298 1.137c3.318 2.962 12.128 10.832 20.138 15.714 6.518 3.973 17.893 9.443 24.501 12.537l-6.154-10.216c-8.977-5.531-16.532-10.191-18.367-11.524-4.691-3.4-7.068-6.82-7.068-10.17 0-3.7 1.704-6.48 4.93-8.031.398-.192 1.135-.451 2.136-.767-.595-.99-.935-1.552-.935-1.552-5.646-9.173-10.138-16.555-12.328-21.18-3.174-6.7-4.74-11.927-4.74-15.859 0-.916.085-1.763.254-2.542l.69-3.162 2.27 2.308c6.652 6.767 19.049 17.217 22.756 19.686.723.483 2.074 1.382 1.62 2.836-.44 1.407-1.888 1.38-2.754 1.364-.182-.003-.416.01-.68.02.82 3.117 2.813 8.023 6.035 14.755 3.125-.807 6.612-1.693 10.352-2.64l5.843-1.481c13.894-3.56 29.735-5.827 41.984-7.404 9.52-1.227 13.998-.875 14.479-.83.974.088 1.737.755 1.945 1.696.592 2.652-3.444 6.095-7.419 8.43a.86.86 0 0 1-.036.02l.277.077c2.956.895 8.41 4.981 10.722 7.293 2.483 2.483 4.677 5.137 5.379 6.148.177.256 1.14.633 1.771.633l.286-.004c1.141-.016 3.264-.05 5.125 1.048 1.246.736 4.18 3.868 10.12 10.814l.392.457.736.838c1.358 1.534 2.341 2.641 2.722 5.185l.078.868c.034.585.034.585.398.886.62.51 1.707.677 2.58.81l.808.137c1.957.392 2.845 2.174 3.138 2.759.044.027.402.282 1.385.78-.33-.927-.938-2.38-2.139-4.85-1.332-2.737-3.265-7.132-4.02-9.31-.609-1.772-1.184-3.65-1.184-5.666 0-.608.054-1.231.173-1.867.383-2.041 1.19-4.889 2.863-6.861 1.743-2.048 4.54-2.76 7.679-1.949 3.045.782 7.756 3.409 10.503 5.857 1.91 1.702 5.445 5.41 8.287 8.39l2.875 2.987 1.77 1.853c.348.37.754.802 1.124 1.178.088-.265.164-.48.284-.884.133-.441 1.06-3.48 2.225-5.326l.176-.28c.927-1.48 2.479-3.956 5.18-5.269 2.28-1.104 5.049-2.16 8.28-1.607 2.735.469 5.774.99 8.741 2.683 3.42 1.956 7.296 5.544 11.522 10.665l6.7 8.515.188.21c1.463-2.08 4.834-5.194 6.746-6.321 2.496-1.472 5.141-2.77 7.548-2.33 2.202.404 4.766 2.999 6.103 4.51l10.602 11.319.735.773c-.154-.706-.318-1.423-.407-2.045a20.624 20.624 0 0 1-.23-2.96c0-1.591.234-2.89.589-4.261.636-2.46 2.174-4.672 3.825-5.5 1.679-.841 4.52-.883 6.198-.092 1.269.595 3.187 1.497 5.258 3.651l4.503 4.278 1.935 1.793c1.364 1.303 3.98 2.695 5.826 3.105 2.629.587 3.757.549 4.834-.834.407-.52.574-1.32.574-2.157 0-1.197-.338-2.465-.8-3.107-2.376-3.299-5.346-5.902-8.834-7.734l-1.248-.656c-4.995-2.637-9.305-4.911-16.584-7.014l-23.122-6.327-6.604-1.76c-16.711-4.473-33.422-9.225-44.698-12.708-16.039-4.957-33.376-9.2-53.01-12.968-16.107-3.093-25.06-4.571-38.822-5.716l-6.491-.512c-8.734-.67-17.761-1.362-27.113-3.057-9.215-1.676-20.776-5.813-22.875-7.428-.763-.584-.945-1.221-.945-1.702 0-.25.049-.457.093-.594.467-1.417 1.797-1.442 4.002-1.48 2.019-.037 5.07-.092 8.09-.89 4.606-1.218 9.316-3.771 14.82-8.033 2.447-1.897 5.019-4.762 6.721-6.659l1.781-1.896c0-.002.318-.302.318-.302 1.404-1.371 2.726-1.898 5.696-.756l4.754 1.942c3.784 1.582 8.494 3.555 14.546 5.607l12.377 4.357 22.027 7.652 36.272 12.431 4.2 1.485c11.82 4.173 22.024 7.78 30.759 10.508.004 0 18.653 5.649 18.653 5.649l11.682 3.514 9.535 2.875 21.641 6.687c5.439 1.812 13.548 4.79 21.128 9.7 3.983 2.58 5.949 4.611 8.38 7.678 2.156 2.718 4.184 7.113 3.856 10.806m-97.996 13.881c1.887 2.318 4.714 5.077 5.938 5.786 1.552.9 3.094.784 3.758.214a.724.724 0 0 0 .283-.601c0-.157-.034-.353-.13-.596-.332-.844-1.866-2.752-5.193-5.575l-7.042-5.389c0-.002-.62-.458-.62-.458a58.19 58.19 0 0 0-1.487-1.073c.971 2.376 2.95 5.788 4.493 7.692m-90.773-36.683c-.09-2.332-1.664-4.303-3.35-6.084-2.037-2.149-3.864-3.032-6.11-2.955-1.23.044-3.262.953-4.347 1.948-.85.78-1.444 1.94-1.77 3.453a3.23 3.23 0 0 0-.06.667c0 1.128.394 2.726.944 3.644 1.35 2.246 3.433 4.746 5.448 7.16l.963 1.158c2.157 2.602 4.196 4.403 5.9 5.776a77.51 77.51 0 0 0-.577-3.616l-.19-1.075a12.062 12.062 0 0 1-.18-2.032c0-2.602.925-4.372 1.564-5.285l.964-1.073c.568-.545.804-.77.804-1.522l-.003-.164m147.809 43.852-5.754-7.046-4.825-5.368-3.114-3.442c0-.002-1.477-1.814-1.477-1.814-1.39-1.771-2.711-3.444-4.766-4.591-.82-.458-1.982-.272-2.727.026-.506.201-1.116.912-1.447 1.688-.277.647-.567 1.44-.567 2.202 0 .213.023.42.071.623.287 1.132.968 2.123 2.294 3.779.954 1.191 6.756 6.11 9.553 7.852 3.237 2.013 10.608 6.399 11.77 7.005.927.485 1.702.831 2.376 1.09a41.926 41.926 0 0 0-1.387-2.004z" style="fill:#00022e" transform="matrix(1.33333 0 0 -1.33333 -376.384 380.227)"/><path d="M305.53 258.605c-8.314-3.792-19.052-13.417-20.657-15.681-1.605-2.264-.46-17.547-.158-19.094.303-1.549 1.343-2.615 2.436-2.943 1.002-.301 2.599-.11 3.777.81.936.732 11.866 11.032 21.601 16.967 9.735 5.932 29.853 15.019 29.853 15.019s-22.574-37.675-28.408-47.156c-5.836-9.48-10.14-16.583-12.236-21.01-2.496-5.268-5.38-12.587-4.358-17.28 6.74 6.855 19.163 17.336 23.035 19.916 3.31 2.203-3.399-.388-2.749 2.47.83 3.651 3.364 9.549 6.408 15.904 3.72 7.768 8.315 16.739 15.973 29.648 7.007 11.812 19.072 30.595 20.02 37.853-13.201-1.423-42.302-14.258-59.733-26.913 1.677 5.508 3.301 7.99 5.197 11.49z" style="fill:#fff" transform="matrix(1.33333 0 0 -1.33333 -376.384 380.227)"/><path d="M401.093 278.076c-4.921-1.477-31.617-16.738-41.354-23.193-9.737-6.455-41.43-25.535-45.292-28.335-4.376-3.173-6.345-6.127-6.345-8.752 0-2.626.984-5.032 3.938-6.455 2.435-1.173 21.378-5.836 30.195-8.096 13.238-3.391 28.197-5.615 41.774-7.364 8.326-1.073 12.87-.937 14.095-.823 1.223.114-.105 3.292-6.2 6.875-9.13 5.367-18.133 8.434-27.336 11.23-8.126 2.469-22.443 6.492-29.335 7.806-2.11.403-2.406 2.515.11 4.704 2.516 2.187 22.974 18.707 30.195 24.068 7.22 5.36 15.972 11.597 17.175 12.363 1.204.765 5.58.765 6.892.875 1.313.109 2.298.875 3.61 2.297 1.313 1.422 8.425 9.19 9.628 10.612 1.204 1.422 1.532 3.173-1.75 2.188z" style="fill:#fff" transform="matrix(1.33333 0 0 -1.33333 -376.384 380.227)"/><path d="M582.979 243.026c-.288 3.194-.955 5.132-3.317 7.13-2.687 2.27-5.066 3.116-8.567 3.264-2.773.114-5.55-.368-9.05-1.754-3.064-1.212-4.543-2.182-7.244-4.223-1.358-1.027-2.332-2.187-3.282-1.46-.705.544-1.324 1.387-1.618 2.729-.262 1.214-.7 4.157-.116 6.126.54 1.82 2.537 3.91 3.85 5.733 1.312 1.825 2.697 3.792 3.792 5.105 1.094 1.312.802 2.92-.073 3.428-.875.51-3.5 1.167-4.229 1.46-.731.291-.438 1.676.363 2.187.803.51 2.041 1.045 3.575 1.168 1.823.144 1.909 1.227 3.303 1.36 1.532.146 2.804 1.402 3.99 2.212.807.554.657 2.773-.072 3.501-.731.73-6.201 1.315-8.898 1.46-2.699.146-6.418.802-9.847.946-3.429.148-6.126-.437-8.314-1.895-2.189-1.458-9.333-7.22-12.106-9.919-2.773-2.698-8.243-8.534-10.797-11.597-2.55-3.063-3.572-4.376-4.448-6.127-.875-1.75-1.322-4.275-1.322-5.15s.071-1.752-1.098-3.21c-1.166-1.458-5.066-5.214-6.889-6.89-1.822-1.677-5.204-4.076-7.029-5.098-1.822-1.019-3.644-1.677-5.69-1.532-2.04.147-3.715.659-5.394 2.044-1.679 1.385-3.429 4.158-3.72 4.667-.294.51-.437 1.898.581 2.189 1.023.29 4.305 2.187 7.659 4.522 3.357 2.332 9.193 5.98 12.328 8.606 3.135 2.625 5.98 6.126 7.145 7.73 1.17 1.605 1.825 5.398 1.023 6.929-.804 1.532-2.992 3.355-6.565 3.72-3.572.364-8.167-.73-11.305-2.773-3.135-2.04-7.292-4.885-10.575-8.095-3.283-3.208-5.467-5.583-7.511-8.354-2.041-2.771-3.911-5.943-4.226-9.154-.289-2.957-.137-4.595-.94-5.323-1.348-1.227-4.26-3.35-6.5-5.09-2.32-1.806-5.3-3.676-7.124-4.62-1.536-.796-3.094-.742-4.185-.132-.991.553-1.458 1.09-1.74 2.861-.243 1.513-.072 2.974 1.155 5.6 1.067 2.277 3.137 5.25 4.814 7.44 1.678 2.188 5.544 7.363 6.637 8.457 1.095 1.094 2.918 3.066 1.97 4.233-.95 1.166-5.76 7.51-6.491 8.386-.73.875-2.261 1.094-3.356.365-1.093-.731-11.377-8.097-13.2-9.483-1.823-1.385-5.324-3.936-5.98-3.644-.657.29-1.97 2.407-2.773 2.916-.802.51-2.843-1.313-4.01-2.773-1.168-1.456-3.29-3.959-3.72-4.738-.921-1.679-.584-2.626-1.386-3.501-.802-.875-2.114-1.969-2.407-3.429-.292-1.46.077-3.248.496-4.32.426-1.089 1.266-1.907 2.176-2.176 1.63-.482 2.116-.663 1.607-1.467-.51-.802-2.802-3.237-4.115-4.112-1.313-.876-3.591-1.417-4.467-.906-.875.51-1.531 2.624-1.386 4.3.146 1.68.438 5.18.146 6.346-.291 1.17-1.751 3.939-3.064 4.304-1.313.366-3.425.437-4.448.366-1.021-.075-1.75 1.313.219 2.041 1.97.728 5.834 3.646 7.293 4.885 1.459 1.241 3.136 3.357 2.625 4.67-.359.924-1.604 1.093-3.282 1.02-1.386-.06-6.417-.948-7.292-1.313-.875-.364-4.743-.876-5.908-.876-1.168 0-4.321.39-6.274-.656-2.04-1.094-5.322-3.135-9.772-8.825-4.576-5.848-6.71-9.262-8.607-14.806-1.896-5.541-1.97-9.918-1.384-12.91.365-1.878 1.969-5.76 3.646-7.439 1.676-1.677 4.463-3.887 7.147-4.74 3.21-1.02 6.71-.436 9.117.293 2.408.727 7.585 4.447 9.992 6.854 2.407 2.408 4.521 4.961 5.177 5.908.658.949 2.335 1.386 3.211 1.386.875 0 2.916-.145 4.522.802 1.604.948 8.322 8.861 10.073 10.902 1.75 2.041 2.695 2.745 3.055 5.144.166 1.102-.146 1.824 1.093 2.845 1.24 1.02 3.064 1.093 4.158 1.312 1.093.219 1.667 1.326 1.915 1.824.3.602 1.367 1.166 2.242 1.604.875.437 2.99.437 2.77-.802-.218-1.24-1.312-3.72-2.625-6.419-1.312-2.697-3.207-7.002-3.938-9.116-.729-2.114-1.385-4.303-.947-6.638.437-2.33 1.24-4.592 2.478-6.05 1.241-1.46 3.358-2.045 5.908-1.39 2.554.657 7.074 3.064 9.775 5.472 2.697 2.406 9.114 9.326 11.085 11.305 2.46 2.468 4.353 4.97 4.938 4.17.581-.803.778-1.488 1.189-2.857.315-1.057 1.123-3.407 1.998-4.793.875-1.385 2.232-3.74 4.638-4.907 2.408-1.168 4.668-1.897 7.222-1.46 2.55.439 5.45.927 8.168 2.48 3.836 2.194 7.77 6.297 11.04 10.26 2.583 3.13 5.534 6.973 6.655 8.456.81 1.066 1.853 2.143 2.654.612.802-1.532 4.597-5.113 6.563-6.272 2.154-1.269 4.49-2.456 6.346-2.117 1.617.298 4.01 2.708 5.104 3.948 1.094 1.239 9.118 9.765 10.65 11.369 1.531 1.605 5.688 6.127 4.885 3.574-.8-2.552-1.31-4.545-1.56-6.303-.406-2.857-.19-4.563.322-6.533.51-1.969 1.751-3.79 2.916-4.376 1.166-.584 3.43-.656 4.667-.073 1.241.583 2.92 1.386 4.742 3.282 1.823 1.896 4.96 4.668 6.493 6.126 1.53 1.458 4.417 3.048 6.652 3.546 2.65.589 4.814.814 6.595-1.466 1.59-2.037.926-5.82-.185-7.363-2.625-3.647-5.897-6.398-9.442-8.262-5.689-2.99-10.116-5.478-18.16-7.803-9.847-2.844-19.42-5.329-29.758-8.096-15.534-4.157-32.602-8.97-44.637-12.69-11.492-3.552-28.688-8.31-53.194-13.014-15.696-3.014-24.824-4.56-39.009-5.741-10.959-.914-21.89-1.453-33.435-3.548-9.537-1.732-20.516-5.858-22.122-7.092-1.605-1.23 4.459.04 10.62-1.586 5.768-1.525 10.965-4.872 15.445-8.343 3.691-2.857 7.544-7.697 8.593-8.63 1.048-.937 1.368-1.829 4.224-.732 4.428 1.703 10.442 4.546 19.366 7.573 11.404 3.868 16.698 6.108 34.411 12.012a2058.04 2058.04 0 0 1 36.244 12.422c13.845 4.885 25.248 8.959 35.022 12.013 11.187 3.498 21.806 6.537 30.339 9.162 8.533 2.626 21.88 6.467 31.138 9.551 6.8 2.265 13.986 5.14 20.732 9.51 3.842 2.49 5.689 4.434 7.958 7.295 2.055 2.59 3.758 6.503 3.484 9.564m-97.61 15.14c1.898 2.334 4.893 5.312 6.417 6.197 3.649 2.117 7.733.22 6.421-3.134-.656-1.68-3.282-4.23-5.688-6.275-2.086-1.766-5.542-4.302-7.15-5.47-1.603-1.166-5.322-4.157-5.47-2.478-.215 2.475 3.577 8.824 5.47 11.16m-91.496-45.074c-1.969-2.08-4.267-3.61-7.439-3.501-1.762.061-4.157 1.203-5.47 2.406-1.313 1.204-1.97 2.845-2.297 4.377-.329 1.531.213 4.11 1.094 5.58 1.64 2.734 4.239 5.728 6.564 8.532 3.172 3.83 6.126 6.017 8.095 7.55 1.97 1.53.657-4.705.11-7.878-.503-2.913.327-4.923 1.094-6.017.766-1.094 2.167-1.511 2.078-3.83-.11-2.843-1.86-5.141-3.829-7.22m151.3 50.106c-1.602-2.188-3.715-4.667-5.831-7.148-2.116-2.479-6.356-6.991-7.952-8.824-1.97-2.262-3.573-5.033-6.708-6.784-1.411-.786-3.138-.508-4.233-.07-1.094.437-1.969 1.603-2.406 2.625-.438 1.02-.947 2.479-.581 3.939.365 1.458 1.165 2.625 2.625 4.447 1.177 1.47 7.156 6.476 9.99 8.243 3.282 2.041 10.663 6.434 11.89 7.073 1.676.875 3.72 1.823 5.177 1.75 1.75-.087-.363-3.062-1.97-5.25z" style="fill:#fff" transform="matrix(1.33333 0 0 -1.33333 -376.384 380.227)"/></svg>